D:\school\WTK\thesis\model\3dpredictsim\Results\Batchsim_tmt_linear_v2\Pog_s1_tmt_aCst_d00_k2000_ig24_act_GRF.mot
nRows=10
nColumns=19

name D:\school\WTK\thesis\model\3dpredictsim\Results\Batchsim_tmt_linear_v2\Pog_s1_tmt_aCst_d00_k2000_ig24_act_GRF.mot
datacolumns 19
datarows 10
range 0.5865071045 0.6920783833
endheader
time 	ground_force_vx	ground_force_vy	ground_force_vz	ground_force_px	ground_force_py	ground_force_pz	1_ground_force_vx	1_ground_force_vy	1_ground_force_vz	1_ground_force_px	1_ground_force_py	1_ground_force_pz	ground_torque_x	ground_torque_y	ground_torque_z	1_ground_torque_x	1_ground_torque_y	1_ground_torque_z
        0.5865071045	       47.4539920448	      266.8781982535	       10.3951189611	        0.3883595150	        0.0000000000	        0.0405653465	      -71.4384320921	       54.9762575548	       -8.1902188205	        1.0773796605	        0.0000000000	       -0.0311697164	        0.0000000000	        0.0000000000	        0.0000000000	        0.0000000000	        0.0000000000	        0.0000000000	
        0.5982372466	       32.2511822531	      219.8815595899	       12.2810731491	        0.3998218431	        0.0000000000	        0.0377133401	     -130.9564095689	      114.4698456856	      -16.3992155700	        1.0726319559	        0.0000000000	       -0.0353150767	        0.0000000000	        0.0000000000	        0.0000000000	        0.0000000000	        0.0000000000	        0.0000000000	
        0.6099673887	       36.1448871143	      184.7422759779	       15.7811720668	        0.4003780803	        0.0000000000	        0.0379723317	     -239.3066918876	      318.9108227427	      -25.6275344207	        1.0457262348	        0.0000000000	       -0.0473266598	        0.0000000000	        0.0000000000	        0.0000000000	        0.0000000000	        0.0000000000	        0.0000000000	
        0.6216975308	       34.0395333400	      142.0295558038	       20.4003604506	        0.4008898050	        0.0000000000	        0.0383966457	     -184.0612609859	      514.1582673265	        2.8209927670	        1.0220271359	        0.0000000000	       -0.0559307693	        0.0000000000	        0.0000000000	        0.0000000000	        0.0000000000	        0.0000000000	        0.0000000000	
        0.6334276728	       24.9681261062	       90.7439060012	       18.1300422962	        0.4013512789	        0.0000000000	        0.0385747285	     -179.0983138058	      695.2131591616	       10.5661094938	        1.0122185815	        0.0000000000	       -0.0590882006	        0.0000000000	        0.0000000000	        0.0000000000	        0.0000000000	        0.0000000000	        0.0000000000	
        0.6451578149	        7.0168858256	       33.4960622439	        8.7597735478	        0.4010377851	        0.0000000000	        0.0385538879	     -190.5069346661	      874.5986466935	       20.1007433427	        1.0050739796	        0.0000000000	       -0.0614310541	        0.0000000000	        0.0000000000	        0.0000000000	        0.0000000000	        0.0000000000	        0.0000000000	
        0.6568879570	        0.1906874969	       -0.2000317020	       -0.0268437957	        0.0000000000	        0.0000000000	        0.0000000000	     -190.5368202388	      950.2228777006	       23.9780675053	        1.0008980483	        0.0000000000	       -0.0626850182	        0.0000000000	        0.0000000000	        0.0000000000	        0.0000000000	        0.0000000000	        0.0000000000	
        0.6686180991	        0.0080164850	       -0.0064596220	        0.0000575674	        0.0000000000	        0.0000000000	        0.0000000000	     -173.3441566527	      940.6012543587	       22.8564928005	        0.9974689317	        0.0000000000	       -0.0634185459	        0.0000000000	        0.0000000000	        0.0000000000	        0.0000000000	        0.0000000000	        0.0000000000	
        0.6803482412	        0.1830355182	       -0.1222763159	        0.0065241761	        0.0000000000	        0.0000000000	        0.0000000000	     -150.9210041710	      884.5514967225	       21.8770092996	        0.9959236454	        0.0000000000	       -0.0637797497	        0.0000000000	        0.0000000000	        0.0000000000	        0.0000000000	        0.0000000000	        0.0000000000	
        0.6920783833	       -1.9782362936	        1.1556072121	       -0.0893379124	        0.0000000000	        0.0000000000	        0.0000000000	     -132.1261214612	      813.8093210553	       19.4519147398	        0.9959928097	        0.0000000000	       -0.0639815335	        0.0000000000	        0.0000000000	        0.0000000000	        0.0000000000	        0.0000000000	        0.0000000000	
